Skip to content
Features
Business
Explore
Marketplace
Pricing
This repository
Search
Sign in or Sign up
 Watch 1  Star 8  Fork 53 zwdbox/is_analysis
 Code  Issues 2  Pull requests 0  Projects 0  Insights
Branch: master Find file Copy path is_analysis/test6/src/class.puml
205a8e8  14 days ago
@zwdbox zwdbox version1
1 contributor
RawBlameHistory     
40 lines (36 sloc)  913 Bytes
@startuml
title 基于GitHub的实验管理平台--类图
class users {
    <b>user_id</b> （用户ID）
    name （用户真实姓名）
    github_username （用户GitHub账号）
    update_date （用户GitHub账号修改日期）
    password （用户密码）
    disable （用户是否禁用）
}
class teachers{
    <b>teacher_id</b> （老师工号）
    department （老师所属部门）
}
class students{
    <b>student_id</b> （学号）
    class （班级）
    result_sum（成绩汇总）
    web_sum （网站正确与否汇总）
}
users <|- students
users <|-- teachers
class grades {
    <b>student_id</b> （学号）
    <b>test_id</b> （实验编号）
    result （分数）
    memo （评价）
    update_date （评改日期）
}

class tests {
    <b>test_id</b> （实验编号）
    title (实验名称)
}

class semester{
 <b>semester_id</b> （学期）
  note(标注)
}
students "1" -- "n"  grades
tests "1" -- "n"  grades
teachers "n" -- "n"  students
semester "1" -- "n"  students
semester "1" -- "n"  tests
@enduml
© 2018 GitHub, Inc.
Terms
Privacy
Security
Status
Help
Contact GitHub
API
Training
Shop
Blog
About
Press h to open a hovercard with more details.